<svg fill="none" height="300" viewBox="0 0 241 300" width="241" xmlns="http://www.w3.org/2000/svg" xmlns:xlink="http://www.w3.org/1999/xlink"><clipPath id="a"><path d="m.734375 0h240v300h-240z"/></clipPath><g clip-path="url(#a)"><path d="m.734375 0h240v300h-240z" fill="#191927" opacity=".05"/><path d="m10.7344 185h105v105h-105z" fill="#21b5c2"/><path d="m10.7344 10h47.5v115h-47.5z" fill="#21b5c2"/><path d="m68.2344 10h47.5v115h-47.5z" fill="#cae5f2"/><path d="m125.734 10h47.5v115h-47.5z" fill="#5436da"/><path d="m183.234 10h47.5v115h-47.5z" fill="#ff5828"/><path d="m40.4844 107.961v-1.53l-10.5-3.6v1.365l9.105 3-9.105 3.015v1.365zm.18-8.9565c0-1.635-.99-2.94-2.385-3.195v1.2c.795.24 1.38.9 1.38 1.995 0 1.5155-1.02 2.1455-2.25 2.1455h-.255v-5.4155h-1.2c-1.875 0-3.36 1.095-3.36 3.315 0 2.2055 1.41 3.4055 3.495 3.4055h1.2c2.1 0 3.375-1.41 3.375-3.4505zm-4.515 2.1455h-.195c-1.335 0-2.355-.555-2.355-2.1005 0-1.41.945-2.055 2.235-2.055h.315zm4.515-10.4958c0-1.965-1.275-3.255-2.925-3.345v1.215c.975.135 1.86.75 1.86 2.115 0 1.485-.96 2.175-2.31 2.175h-1.305c-1.365 0-2.325-.69-2.325-2.175 0-1.365.885-1.98 1.86-2.115v-1.215c-1.65.09-2.925 1.38-2.925 3.345 0 2.19 1.455 3.48 3.405 3.48h1.26c1.95 0 3.405-1.29 3.405-3.48zm-.18-7.9743v-1.065h-1.095v.78c0 .795-.3 1.05-1.02 1.05h-4.5v-1.89h-1.095v1.89h-2.19v1.35h2.19v1.26h1.095v-1.26h4.53c1.32 0 2.085-.63 2.085-2.115zm.18-5.9714c0-2.205-1.5-3.48-3.42-3.48h-1.23c-1.905 0-3.42 1.275-3.42 3.48 0 2.22 1.515 3.495 3.42 3.495h1.23c1.92 0 3.42-1.275 3.42-3.495zm-1.065 0c0 1.44-.975 2.19-2.34 2.19h-1.26c-1.35 0-2.325-.75-2.325-2.19 0-1.425.975-2.175 2.325-2.175h1.26c1.365 0 2.34.75 2.34 2.175zm.885-5.4493v-1.335h-3.735c-1.845 0-2.745-.885-2.745-2.31v-.27h-1.275v.195c0 1.335.585 2.19 1.755 2.46h-1.71v1.26zm.21-12.5105c0-2.265-1.215-3.96-3.15-3.96-1.365 0-2.235.885-2.595 2.235l-.795 3c-.225.84-.69 1.215-1.5 1.215-1.17 0-1.8-.96-1.8-2.355 0-1.545.825-2.415 1.98-2.415h.225v-1.275h-.255c-1.8 0-3.03 1.5-3.03 3.69 0 2.205 1.11 3.69 2.985 3.69 1.29 0 2.145-.615 2.535-2.145l.765-2.925c.24-.915.795-1.38 1.59-1.38 1.26 0 1.965.99 1.965 2.61 0 1.665-.855 2.67-2.1 2.67h-.24v1.305h.27c1.95 0 3.15-1.665 3.15-3.96zm-.21-5.8701v-6.375h-1.065v2.49h-8.37v-2.46h-1.065v6.315h1.065v-2.475h8.37v2.505zm0-8.7372v-1.305h-7.845l5.31-2.685v-1.29l-5.31-2.685h7.845v-1.305h-10.5v1.275l6.72 3.36-6.72 3.36v1.275zm0-11.9092v-4.02c0-2.7-1.71-4.17-4.05-4.17h-2.4c-2.34 0-4.05 1.47-4.05 4.17v4.02zm-1.125-1.365h-8.25v-2.445c0-1.98 1.17-3.015 2.925-3.015h2.4c1.755 0 2.925 1.035 2.925 3.015z" fill="#fff"/><path d="m97.9844 107.961v-1.53l-10.5-3.6v1.365l9.105 3-9.105 3.015v1.365zm.18-8.9565c0-1.635-.99-2.94-2.385-3.195v1.2c.795.24 1.38.9 1.38 1.995 0 1.5155-1.02 2.1455-2.25 2.1455h-.255v-5.4155h-1.2c-1.875 0-3.36 1.095-3.36 3.315 0 2.2055 1.41 3.4055 3.495 3.4055h1.2c2.1 0 3.375-1.41 3.375-3.4505zm-4.515 2.1455h-.195c-1.335 0-2.355-.555-2.355-2.1005 0-1.41.945-2.055 2.235-2.055h.315zm4.515-10.4958c0-1.965-1.275-3.255-2.925-3.345v1.215c.975.135 1.86.75 1.86 2.115 0 1.485-.96 2.175-2.31 2.175h-1.305c-1.365 0-2.325-.69-2.325-2.175 0-1.365.885-1.98 1.86-2.115v-1.215c-1.65.09-2.925 1.38-2.925 3.345 0 2.19 1.455 3.48 3.405 3.48h1.26c1.95 0 3.405-1.29 3.405-3.48zm-.18-7.9743v-1.065h-1.095v.78c0 .795-.3 1.05-1.02 1.05h-4.5v-1.89h-1.095v1.89h-2.19v1.35h2.19v1.26h1.095v-1.26h4.53c1.32 0 2.085-.63 2.085-2.115zm.18-5.9714c0-2.205-1.5-3.48-3.42-3.48h-1.23c-1.905 0-3.42 1.275-3.42 3.48 0 2.22 1.515 3.495 3.42 3.495h1.23c1.92 0 3.42-1.275 3.42-3.495zm-1.065 0c0 1.44-.975 2.19-2.34 2.19h-1.26c-1.35 0-2.325-.75-2.325-2.19 0-1.425.975-2.175 2.325-2.175h1.26c1.365 0 2.34.75 2.34 2.175zm.885-5.4493v-1.335h-3.735c-1.845 0-2.745-.885-2.745-2.31v-.27h-1.275v.195c0 1.335.585 2.19 1.755 2.46h-1.71v1.26zm.21-12.5105c0-2.265-1.215-3.96-3.15-3.96-1.365 0-2.235.885-2.595 2.235l-.795 3c-.225.84-.69 1.215-1.5 1.215-1.17 0-1.8-.96-1.8-2.355 0-1.545.825-2.415 1.98-2.415h.225v-1.275h-.255c-1.8 0-3.03 1.5-3.03 3.69 0 2.205 1.11 3.69 2.985 3.69 1.29 0 2.145-.615 2.535-2.145l.765-2.925c.24-.915.795-1.38 1.59-1.38 1.26 0 1.965.99 1.965 2.61 0 1.665-.855 2.67-2.1 2.67h-.24v1.305h.27c1.95 0 3.15-1.665 3.15-3.96zm-.21-5.8701v-6.375h-1.065v2.49h-8.37v-2.46h-1.065v6.315h1.065v-2.475h8.37v2.505zm0-8.7372v-1.305h-7.845l5.31-2.685v-1.29l-5.31-2.685h7.845v-1.305h-10.5v1.275l6.72 3.36-6.72 3.36v1.275zm0-11.9092v-4.02c0-2.7-1.71-4.17-4.05-4.17h-2.4c-2.34 0-4.05 1.47-4.05 4.17v4.02zm-1.125-1.365h-8.25v-2.445c0-1.98 1.17-3.015 2.925-3.015h2.4c1.755 0 2.925 1.035 2.925 3.015z" fill="#191927"/><path d="m155.484 107.961v-1.53l-10.5-3.6v1.365l9.105 3-9.105 3.015v1.365zm.18-8.9565c0-1.635-.99-2.94-2.385-3.195v1.2c.795.24 1.38.9 1.38 1.995 0 1.5155-1.02 2.1455-2.25 2.1455h-.255v-5.4155h-1.2c-1.875 0-3.36 1.095-3.36 3.315 0 2.2055 1.41 3.4055 3.495 3.4055h1.2c2.1 0 3.375-1.41 3.375-3.4505zm-4.515 2.1455h-.195c-1.335 0-2.355-.555-2.355-2.1005 0-1.41.945-2.055 2.235-2.055h.315zm4.515-10.4958c0-1.965-1.275-3.255-2.925-3.345v1.215c.975.135 1.86.75 1.86 2.115 0 1.485-.96 2.175-2.31 2.175h-1.305c-1.365 0-2.325-.69-2.325-2.175 0-1.365.885-1.98 1.86-2.115v-1.215c-1.65.09-2.925 1.38-2.925 3.345 0 2.19 1.455 3.48 3.405 3.48h1.26c1.95 0 3.405-1.29 3.405-3.48zm-.18-7.9743v-1.065h-1.095v.78c0 .795-.3 1.05-1.02 1.05h-4.5v-1.89h-1.095v1.89h-2.19v1.35h2.19v1.26h1.095v-1.26h4.53c1.32 0 2.085-.63 2.085-2.115zm.18-5.9714c0-2.205-1.5-3.48-3.42-3.48h-1.23c-1.905 0-3.42 1.275-3.42 3.48 0 2.22 1.515 3.495 3.42 3.495h1.23c1.92 0 3.42-1.275 3.42-3.495zm-1.065 0c0 1.44-.975 2.19-2.34 2.19h-1.26c-1.35 0-2.325-.75-2.325-2.19 0-1.425.975-2.175 2.325-2.175h1.26c1.365 0 2.34.75 2.34 2.175zm.885-5.4493v-1.335h-3.735c-1.845 0-2.745-.885-2.745-2.31v-.27h-1.275v.195c0 1.335.585 2.19 1.755 2.46h-1.71v1.26zm.21-12.5105c0-2.265-1.215-3.96-3.15-3.96-1.365 0-2.235.885-2.595 2.235l-.795 3c-.225.84-.69 1.215-1.5 1.215-1.17 0-1.8-.96-1.8-2.355 0-1.545.825-2.415 1.98-2.415h.225v-1.275h-.255c-1.8 0-3.03 1.5-3.03 3.69 0 2.205 1.11 3.69 2.985 3.69 1.29 0 2.145-.615 2.535-2.145l.765-2.925c.24-.915.795-1.38 1.59-1.38 1.26 0 1.965.99 1.965 2.61 0 1.665-.855 2.67-2.1 2.67h-.24v1.305h.27c1.95 0 3.15-1.665 3.15-3.96zm-.21-5.8701v-6.375h-1.065v2.49h-8.37v-2.46h-1.065v6.315h1.065v-2.475h8.37v2.505zm0-8.7372v-1.305h-7.845l5.31-2.685v-1.29l-5.31-2.685h7.845v-1.305h-10.5v1.275l6.72 3.36-6.72 3.36v1.275zm0-11.9092v-4.02c0-2.7-1.71-4.17-4.05-4.17h-2.4c-2.34 0-4.05 1.47-4.05 4.17v4.02zm-1.125-1.365h-8.25v-2.445c0-1.98 1.17-3.015 2.925-3.015h2.4c1.755 0 2.925 1.035 2.925 3.015z" fill="#fff"/><path d="m212.984 107.961v-1.53l-10.5-3.6v1.365l9.105 3-9.105 3.015v1.365zm.18-8.9565c0-1.635-.99-2.94-2.385-3.195v1.2c.795.24 1.38.9 1.38 1.995 0 1.5155-1.02 2.1455-2.25 2.1455h-.255v-5.4155h-1.2c-1.875 0-3.36 1.095-3.36 3.315 0 2.2055 1.41 3.4055 3.495 3.4055h1.2c2.1 0 3.375-1.41 3.375-3.4505zm-4.515 2.1455h-.195c-1.335 0-2.355-.555-2.355-2.1005 0-1.41.945-2.055 2.235-2.055h.315zm4.515-10.4958c0-1.965-1.275-3.255-2.925-3.345v1.215c.975.135 1.86.75 1.86 2.115 0 1.485-.96 2.175-2.31 2.175h-1.305c-1.365 0-2.325-.69-2.325-2.175 0-1.365.885-1.98 1.86-2.115v-1.215c-1.65.09-2.925 1.38-2.925 3.345 0 2.19 1.455 3.48 3.405 3.48h1.26c1.95 0 3.405-1.29 3.405-3.48zm-.18-7.9743v-1.065h-1.095v.78c0 .795-.3 1.05-1.02 1.05h-4.5v-1.89h-1.095v1.89h-2.19v1.35h2.19v1.26h1.095v-1.26h4.53c1.32 0 2.085-.63 2.085-2.115zm.18-5.9714c0-2.205-1.5-3.48-3.42-3.48h-1.23c-1.905 0-3.42 1.275-3.42 3.48 0 2.22 1.515 3.495 3.42 3.495h1.23c1.92 0 3.42-1.275 3.42-3.495zm-1.065 0c0 1.44-.975 2.19-2.34 2.19h-1.26c-1.35 0-2.325-.75-2.325-2.19 0-1.425.975-2.175 2.325-2.175h1.26c1.365 0 2.34.75 2.34 2.175zm.885-5.4493v-1.335h-3.735c-1.845 0-2.745-.885-2.745-2.31v-.27h-1.275v.195c0 1.335.585 2.19 1.755 2.46h-1.71v1.26zm.21-12.5105c0-2.265-1.215-3.96-3.15-3.96-1.365 0-2.235.885-2.595 2.235l-.795 3c-.225.84-.69 1.215-1.5 1.215-1.17 0-1.8-.96-1.8-2.355 0-1.545.825-2.415 1.98-2.415h.225v-1.275h-.255c-1.8 0-3.03 1.5-3.03 3.69 0 2.205 1.11 3.69 2.985 3.69 1.29 0 2.145-.615 2.535-2.145l.765-2.925c.24-.915.795-1.38 1.59-1.38 1.26 0 1.965.99 1.965 2.61 0 1.665-.855 2.67-2.1 2.67h-.24v1.305h.27c1.95 0 3.15-1.665 3.15-3.96zm-.21-5.8701v-6.375h-1.065v2.49h-8.37v-2.46h-1.065v6.315h1.065v-2.475h8.37v2.505zm0-8.7372v-1.305h-7.845l5.31-2.685v-1.29l-5.31-2.685h7.845v-1.305h-10.5v1.275l6.72 3.36-6.72 3.36v1.275zm0-11.9092v-4.02c0-2.7-1.71-4.17-4.05-4.17h-2.4c-2.34 0-4.05 1.47-4.05 4.17v4.02zm-1.125-1.365h-8.25v-2.445c0-1.98 1.17-3.015 2.925-3.015h2.4c1.755 0 2.925 1.035 2.925 3.015z" fill="#fff"/><path d="m125.734 185h105v105h-105z" fill="#5436da"/><g fill="#fff"><path d="m43.6672 233.5h1.38v-9.345h3.15v-1.155h-7.68v1.155h3.15zm7.8674.18c1.635 0 2.94-.99 3.195-2.385h-1.2c-.24.795-.9 1.38-1.995 1.38-1.515 0-2.145-1.02-2.145-2.25v-.255h5.415v-1.2c0-1.875-1.095-3.36-3.315-3.36-2.205 0-3.405 1.41-3.405 3.495v1.2c0 2.1 1.41 3.375 3.45 3.375zm-2.145-4.515v-.195c0-1.335.555-2.355 2.1-2.355 1.41 0 2.055.945 2.055 2.235v.315zm7.3903 4.335h1.335v-4.545c0-1.455.885-2.175 2.07-2.175 1.29 0 1.83.825 1.83 2.04v4.68h1.35v-4.875c0-1.86-1.095-3.015-2.805-3.015-1.29 0-2.145.57-2.505 1.41v-1.23h-1.275zm11.7126.18c1.83 0 3.18-1.02 3.18-2.415 0-1.11-.675-1.695-1.86-1.98l-2.355-.57c-.525-.12-.765-.42-.765-.915 0-.78.705-1.2 1.71-1.2 1.095 0 1.71.585 1.71 1.455v.06h1.2v-.075c0-1.455-1.23-2.43-2.895-2.43-1.725 0-2.97.78-2.97 2.265 0 1.035.645 1.71 1.8 1.965l2.28.525c.585.135.9.48.9.99 0 .9-.81 1.335-1.92 1.335-1.185 0-2.025-.57-2.025-1.47v-.06h-1.215v.09c0 1.53 1.335 2.43 3.225 2.43zm8.1652 0c2.205 0 3.48-1.5 3.48-3.42v-1.23c0-1.905-1.275-3.42-3.48-3.42-2.22 0-3.495 1.515-3.495 3.42v1.23c0 1.92 1.275 3.42 3.495 3.42zm0-1.065c-1.44 0-2.19-.975-2.19-2.34v-1.26c0-1.35.75-2.325 2.19-2.325 1.425 0 2.175.975 2.175 2.325v1.26c0 1.365-.75 2.34-2.175 2.34zm5.4493.885h1.335v-3.735c0-1.845.885-2.745 2.31-2.745h.27v-1.275h-.195c-1.335 0-2.19.585-2.46 1.755v-1.71h-1.26zm-34.2473 18.21c2.265 0 3.96-1.215 3.96-3.15 0-1.365-.885-2.235-2.235-2.595l-3-.795c-.84-.225-1.215-.69-1.215-1.5 0-1.17.96-1.8 2.355-1.8 1.545 0 2.415.825 2.415 1.98v.225h1.275v-.255c0-1.8-1.5-3.03-3.69-3.03-2.205 0-3.69 1.11-3.69 2.985 0 1.29.615 2.145 2.145 2.535l2.925.765c.915.24 1.38.795 1.38 1.59 0 1.26-.99 1.965-2.61 1.965-1.665 0-2.67-.855-2.67-2.1v-.24h-1.305v.27c0 1.95 1.665 3.15 3.96 3.15zm5.8701-.21h6.375v-1.065h-2.49v-8.37h2.46v-1.065h-6.315v1.065h2.475v8.37h-2.505zm8.7372 0h1.305v-7.845l2.685 5.31h1.29l2.685-5.31v7.845h1.305v-10.5h-1.275l-3.36 6.72-3.36-6.72h-1.275zm11.9092 0h4.02c2.7 0 4.17-1.71 4.17-4.05v-2.4c0-2.34-1.47-4.05-4.17-4.05h-4.02zm1.365-1.125v-8.25h2.445c1.98 0 3.015 1.17 3.015 2.925v2.4c0 1.755-1.035 2.925-3.015 2.925z"/><path d="m158.667 233.5h1.38v-9.345h3.15v-1.155h-7.68v1.155h3.15zm7.868.18c1.635 0 2.94-.99 3.195-2.385h-1.2c-.24.795-.9 1.38-1.995 1.38-1.515 0-2.145-1.02-2.145-2.25v-.255h5.415v-1.2c0-1.875-1.095-3.36-3.315-3.36-2.205 0-3.405 1.41-3.405 3.495v1.2c0 2.1 1.41 3.375 3.45 3.375zm-2.145-4.515v-.195c0-1.335.555-2.355 2.1-2.355 1.41 0 2.055.945 2.055 2.235v.315zm7.39 4.335h1.335v-4.545c0-1.455.885-2.175 2.07-2.175 1.29 0 1.83.825 1.83 2.04v4.68h1.35v-4.875c0-1.86-1.095-3.015-2.805-3.015-1.29 0-2.145.57-2.505 1.41v-1.23h-1.275zm11.713.18c1.83 0 3.18-1.02 3.18-2.415 0-1.11-.675-1.695-1.86-1.98l-2.355-.57c-.525-.12-.765-.42-.765-.915 0-.78.705-1.2 1.71-1.2 1.095 0 1.71.585 1.71 1.455v.06h1.2v-.075c0-1.455-1.23-2.43-2.895-2.43-1.725 0-2.97.78-2.97 2.265 0 1.035.645 1.71 1.8 1.965l2.28.525c.585.135.9.48.9.99 0 .9-.81 1.335-1.92 1.335-1.185 0-2.025-.57-2.025-1.47v-.06h-1.215v.09c0 1.53 1.335 2.43 3.225 2.43zm8.165 0c2.205 0 3.48-1.5 3.48-3.42v-1.23c0-1.905-1.275-3.42-3.48-3.42-2.22 0-3.495 1.515-3.495 3.42v1.23c0 1.92 1.275 3.42 3.495 3.42zm0-1.065c-1.44 0-2.19-.975-2.19-2.34v-1.26c0-1.35.75-2.325 2.19-2.325 1.425 0 2.175.975 2.175 2.325v1.26c0 1.365-.75 2.34-2.175 2.34zm5.449.885h1.335v-3.735c0-1.845.885-2.745 2.31-2.745h.27v-1.275h-.195c-1.335 0-2.19.585-2.46 1.755v-1.71h-1.26zm-34.247 18.21c2.265 0 3.96-1.215 3.96-3.15 0-1.365-.885-2.235-2.235-2.595l-3-.795c-.84-.225-1.215-.69-1.215-1.5 0-1.17.96-1.8 2.355-1.8 1.545 0 2.415.825 2.415 1.98v.225h1.275v-.255c0-1.8-1.5-3.03-3.69-3.03-2.205 0-3.69 1.11-3.69 2.985 0 1.29.615 2.145 2.145 2.535l2.925.765c.915.24 1.38.795 1.38 1.59 0 1.26-.99 1.965-2.61 1.965-1.665 0-2.67-.855-2.67-2.1v-.24h-1.305v.27c0 1.95 1.665 3.15 3.96 3.15zm5.87-.21h6.375v-1.065h-2.49v-8.37h2.46v-1.065h-6.315v1.065h2.475v8.37h-2.505zm8.737 0h1.305v-7.845l2.685 5.31h1.29l2.685-5.31v7.845h1.305v-10.5h-1.275l-3.36 6.72-3.36-6.72h-1.275zm11.909 0h4.02c2.7 0 4.17-1.71 4.17-4.05v-2.4c0-2.34-1.47-4.05-4.17-4.05h-4.02zm1.365-1.125v-8.25h2.445c1.98 0 3.015 1.17 3.015 2.925v2.4c0 1.755-1.035 2.925-3.015 2.925z"/></g></g></svg>